<svg width="19" height="19" viewBox="0 0 19 19" fill="none" xmlns="http://www.w3.org/2000/svg">
<path d="M13.3608 4.71078V1.17769H4.75688V4.71078H3.68139V0H14.4363V4.71078H13.3608ZM15.0977 8.83271C15.4024 8.83271 15.658 8.71965 15.8645 8.49353C16.071 8.26741 16.1739 7.98791 16.1732 7.65501C16.1724 7.32212 16.0696 7.04222 15.8645 6.81532C15.6594 6.58841 15.4038 6.47535 15.0977 6.47614C14.7915 6.47692 14.5363 6.58998 14.3319 6.81532C14.1276 7.04065 14.0243 7.32055 14.0222 7.65501C14.02 7.98948 14.1233 8.26898 14.3319 8.49353C14.5406 8.71808 14.7951 8.83114 15.0977 8.83271ZM13.3608 16.94V11.5956H4.75688V16.94H13.3608ZM14.4363 18.1176H3.68139V13.4069H0V7.06616C0 6.3988 0.206852 5.8394 0.620556 5.38795C1.03426 4.9365 1.5444 4.71038 2.15097 4.7096H15.9667C16.5761 4.7096 17.087 4.93572 17.4992 5.38795C17.9115 5.84019 18.1176 6.3992 18.1176 7.06499V13.4069H14.4363V18.1176ZM17.0422 12.2292V7.06616C17.0422 6.73248 16.9393 6.45259 16.7335 6.22647C16.5277 6.00035 16.2721 5.88729 15.9667 5.88729H2.15097C1.84625 5.88729 1.591 6.00035 1.38523 6.22647C1.17945 6.45259 1.0762 6.73248 1.07549 7.06616V12.2292H3.68139V10.4179H14.4363V12.2292H17.0422Z" fill="#EBEBEB"/>
</svg>
