<svg width="20" height="18" viewBox="0 0 20 18" fill="none" xmlns="http://www.w3.org/2000/svg">
<path d="M14.0612 1.375C14.5618 1.37458 15.0574 1.47409 15.519 1.6677C15.9806 1.86131 16.3989 2.14512 16.7494 2.5025C17.4715 3.23564 17.8763 4.22342 17.8763 5.2525C17.8763 6.28158 17.4715 7.26937 16.7494 8.0025L9.62686 15.2144L2.50436 8.0025C1.7822 7.26937 1.3774 6.28158 1.3774 5.2525C1.3774 4.22342 1.7822 3.23564 2.50436 2.5025C2.85505 2.14538 3.27338 1.86172 3.73492 1.66808C4.19647 1.47444 4.69197 1.37471 5.19248 1.37471C5.693 1.37471 6.1885 1.47444 6.65005 1.66808C7.11159 1.86172 7.52992 2.14538 7.88061 2.5025L9.62686 4.29L11.3662 2.51625C11.7157 2.15461 12.1344 1.86716 12.5975 1.67107C13.0605 1.47498 13.5584 1.37428 14.0612 1.375ZM14.0612 1.84446e-06C13.3776 -0.000577526 12.7007 0.13534 12.0703 0.399784C11.4399 0.664229 10.8686 1.05188 10.39 1.54L9.62686 2.31L8.86373 1.54C8.38451 1.05276 7.81309 0.665783 7.18279 0.401633C6.55248 0.137482 5.8759 0.00144198 5.19248 0.00144198C4.50907 0.00144198 3.83249 0.137482 3.20218 0.401633C2.57188 0.665783 2.00046 1.05276 1.52123 1.54C0.546276 2.53249 0 3.86812 0 5.25938C0 6.65063 0.546276 7.98626 1.52123 8.97875L9.62686 17.1875L17.7325 8.97875C18.7074 7.98626 19.2537 6.65063 19.2537 5.25938C19.2537 3.86812 18.7074 2.53249 17.7325 1.54C17.2532 1.05281 16.6817 0.665768 16.0515 0.40139C15.4212 0.137012 14.7447 0.000571723 14.0612 1.84446e-06Z" fill="#EBEBEB"/>
</svg>
